<svg x="0" y="0" width="512" height="512" version="1.1"
    xmlns="http://www.w3.org/2000/svg"
    xmlns:xlink="http://www.w3.org/1999/xlink" viewBox="0 0 512 512">
    <title>bell icon</title>
    <desc>bell icon from the IconExperience.com G-Collection. Copyright by INCORS GmbH (www.incors.com).</desc>
    <g>
        <path d="M256,384c35.35,0 64,28.65 64,64c0,35.35 -28.65,64 -64,64c-35.35,0 -64,-28.65 -64,-64c0,-35.35 28.65,-64 64,-64z" fill="#788f9b"/>
        <path d="M256,384c35.35,0 64,28.65 64,64c0,35.35 -28.65,64 -64,64l0,-32l-55.45,0c-5.45,-9.4 -8.55,-20.35 -8.55,-32c0,-35.35 28.65,-64 64,-64z" fill="#546e7a"/>
        <path d="M48,464l0,-32c0,-33.6 41.1,-56.75 48,-112c16,-128 16,-192 107.7,-230.2c8.6,-3.6 12.65,-13.2 8.7,-21.65c-2.8,-6.1 -4.4,-12.95 -4.4,-20.15c0,-26.5 21.5,-48 48,-48c26.5,0 48,21.5 48,48c0,7.2 -1.6,14.05 -4.4,20.15c-3.95,8.45 0.1,18.05 8.7,21.65c91.7,38.2 91.7,102.2 107.7,230.2c6.9,55.25 48,78.4 48,112l0,32z M256,32c-8.85,0 -16,7.15 -16,16c0,8.85 7.15,16 16,16c8.85,0 16,-7.15 16,-16c0,-8.85 -7.15,-16 -16,-16z" fill="#ffc928"/>
        <path d="M256,0c26.5,0 48,21.5 48,48c0,7.2 -1.6,14.05 -4.4,20.15c-3.95,8.45 0.1,18.05 8.7,21.65c91.7,38.2 91.7,102.2 107.7,230.2c6.9,55.25 48,78.4 48,112l0,32l-208,0l0,-400c8.85,0 16,-7.15 16,-16c0,-8.85 -7.15,-16 -16,-16z" fill="#ffb100"/>
    </g>
</svg>