<svg x="0" y="0" width="512" height="512" version="1.1"
    xmlns="http://www.w3.org/2000/svg"
    xmlns:xlink="http://www.w3.org/1999/xlink" viewBox="0 0 512 512">
    <title>calculator icon</title>
    <desc>calculator icon from the IconExperience.com G-Collection. Copyright by INCORS GmbH (www.incors.com).</desc>
    <g>
        <path d="M96,0l320,0c17.65,0 32,14.35 32,32l0,448c0,17.65 -14.35,32 -32,32l-320,0c-17.65,0 -32,-14.35 -32,-32l0,-448c0,-17.65 14.35,-32 32,-32z" fill="#546e7a"/>
        <path d="M439.9,10.8c5.05,5.65 8.1,13.05 8.1,21.2l0,448c0,17.65 -14.35,32 -32,32l-320,0c-9.5,0 -18.05,-4.15 -23.9,-10.8z" fill="#445a64"/>
        <path d="M112,32l288,0c8.8,0 16,7.2 16,16l0,80c0,8.8 -7.2,16 -16,16l-288,0c-8.8,0 -16,-7.2 -16,-16l0,-80c0,-8.8 7.2,-16 16,-16z" fill="#c3dfa3"/>
        <path d="M415.4,43.7l0.05,0.1l0,0.05l0,0.05l0.05,0.2l0.05,0.1l0,0.05l0.05,0.2l0,0.1l0.05,0.05l0,0.05l0,0.1l0.05,0.1l0,0.05l0,0.05l0,0.05l0.05,0.1l0,0.1l0,0.1l0.05,0.05l0,0.1l0,0.05l0,0l0.05,0.15l0,0.2l0,0.05l0,0.1l0.05,0.05l0,0.1l0,0.05l0,0.1l0,0.1l0.05,0.1l0,0.2l0,0.05l0,0l0,0.05l0,0.25l0.05,0.1l0,0.05l0,0l0,0.05l0,0.3l0,0.05l0,0.05l0,0.35l0,80c0,8.8 -7.2,16 -16,16l-60,0l72,-96l-316,0c0,-8.8 7.2,-16 16,-16l288,0c7.35,0 13.55,5 15.4,11.7z" fill="#add37f"/>
        <path d="M112,176l32,0c8.8,0 16,7.2 16,16l0,32c0,8.8 -7.2,16 -16,16l-32,0c-8.8,0 -16,-7.2 -16,-16l0,-32c0,-8.8 7.2,-16 16,-16z M272,416l32,0c8.8,0 16,7.2 16,16l0,32c0,8.8 -7.2,16 -16,16l-32,0c-8.8,0 -16,-7.2 -16,-16l0,-32c0,-8.8 7.2,-16 16,-16z M192,416l32,0c8.8,0 16,7.2 16,16l0,32c0,8.8 -7.2,16 -16,16l-32,0c-8.8,0 -16,-7.2 -16,-16l0,-32c0,-8.8 7.2,-16 16,-16z M272,336l32,0c8.8,0 16,7.2 16,16l0,32c0,8.8 -7.2,16 -16,16l-32,0c-8.8,0 -16,-7.2 -16,-16l0,-32c0,-8.8 7.2,-16 16,-16z M192,336l32,0c8.8,0 16,7.2 16,16l0,32c0,8.8 -7.2,16 -16,16l-32,0c-8.8,0 -16,-7.2 -16,-16l0,-32c0,-8.8 7.2,-16 16,-16z M272,256l32,0c8.8,0 16,7.2 16,16l0,32c0,8.8 -7.2,16 -16,16l-32,0c-8.8,0 -16,-7.2 -16,-16l0,-32c0,-8.8 7.2,-16 16,-16z M192,256l32,0c8.8,0 16,7.2 16,16l0,32c0,8.8 -7.2,16 -16,16l-32,0c-8.8,0 -16,-7.2 -16,-16l0,-32c0,-8.8 7.2,-16 16,-16z M272,176l32,0c8.8,0 16,7.2 16,16l0,32c0,8.8 -7.2,16 -16,16l-32,0c-8.8,0 -16,-7.2 -16,-16l0,-32c0,-8.8 7.2,-16 16,-16z M192,176l32,0c8.8,0 16,7.2 16,16l0,32c0,8.8 -7.2,16 -16,16l-32,0c-8.8,0 -16,-7.2 -16,-16l0,-32c0,-8.8 7.2,-16 16,-16z M112,416l32,0c8.8,0 16,7.2 16,16l0,32c0,8.8 -7.2,16 -16,16l-32,0c-8.8,0 -16,-7.2 -16,-16l0,-32c0,-8.8 7.2,-16 16,-16z M112,336l32,0c8.8,0 16,7.2 16,16l0,32c0,8.8 -7.2,16 -16,16l-32,0c-8.8,0 -16,-7.2 -16,-16l0,-32c0,-8.8 7.2,-16 16,-16z M112,256l32,0c8.8,0 16,7.2 16,16l0,32c0,8.8 -7.2,16 -16,16l-32,0c-8.8,0 -16,-7.2 -16,-16l0,-32c0,-8.8 7.2,-16 16,-16z" fill="#ebedef"/>
        <path d="M96.65,468.5l39.35,-52.5l8,0c8.8,0 16,7.2 16,16l0,32c0,8.8 -7.2,16 -16,16l-32,0c-7.25,0 -13.4,-4.9 -15.35,-11.5z M148.5,399.35l11.5,-15.35c0,7.25 -4.9,13.4 -11.5,15.35z M176,362.65l20,-26.65l28,0c8.8,0 16,7.2 16,16l0,32c0,8.8 -7.2,16 -16,16l-32,0c-8.8,0 -16,-7.2 -16,-16z M208,320l32,-42.65l0,26.65c0,8.8 -7.2,16 -16,16z M268.3,239.55l45.3,-60.35c3.9,2.95 6.4,7.6 6.4,12.8l0,32c0,8.8 -7.2,16 -16,16l-32,0c-1.25,0 -2.5,-0.15 -3.7,-0.45z M272,416l32,0c8.8,0 16,7.2 16,16l0,32c0,8.8 -7.2,16 -16,16l-32,0c-8.8,0 -16,-7.2 -16,-16l0,-32c0,-8.8 7.2,-16 16,-16z M192,416l32,0c8.8,0 16,7.2 16,16l0,32c0,8.8 -7.2,16 -16,16l-32,0c-8.8,0 -16,-7.2 -16,-16l0,-32c0,-8.8 7.2,-16 16,-16z M272,336l32,0c8.8,0 16,7.2 16,16l0,32c0,8.8 -7.2,16 -16,16l-32,0c-8.8,0 -16,-7.2 -16,-16l0,-32c0,-8.8 7.2,-16 16,-16z M272,256l32,0c8.8,0 16,7.2 16,16l0,32c0,8.8 -7.2,16 -16,16l-32,0c-8.8,0 -16,-7.2 -16,-16l0,-32c0,-8.8 7.2,-16 16,-16z" fill="#cdd7db"/>
        <path d="M368,336l32,0c8.8,0 16,7.2 16,16l0,112c0,8.8 -7.2,16 -16,16l-32,0c-8.8,0 -16,-7.2 -16,-16l0,-112c0,-8.8 7.2,-16 16,-16z" fill="#f7a724"/>
        <path d="M368,176l32,0c8.8,0 16,7.2 16,16l0,32c0,8.8 -7.2,16 -16,16l-32,0c-8.8,0 -16,-7.2 -16,-16l0,-32c0,-8.8 7.2,-16 16,-16z M368,256l32,0c8.8,0 16,7.2 16,16l0,32c0,8.8 -7.2,16 -16,16l-32,0c-8.8,0 -16,-7.2 -16,-16l0,-32c0,-8.8 7.2,-16 16,-16z" fill="#689d38"/>
    </g>
</svg>