<svg x="0" y="0" width="512" height="512" version="1.1"
    xmlns="http://www.w3.org/2000/svg"
    xmlns:xlink="http://www.w3.org/1999/xlink" viewBox="0 0 512 512">
    <title>calendar 1 icon</title>
    <desc>calendar 1 icon from the IconExperience.com G-Collection. Copyright by INCORS GmbH (www.incors.com).</desc>
    <g>
        <path d="M48,48l416,0c8.8,0 16,7.2 16,16l0,432c0,8.8 -7.2,16 -16,16l-416,0c-8.8,0 -16,-7.2 -16,-16l0,-432c0,-8.8 7.2,-16 16,-16z" fill="#ffffff"/>
        <path d="M475.4,52.8c2.85,2.85 4.6,6.85 4.6,11.2l0,432c0,8.8 -7.2,16 -16,16l-416,0c-4.45,0 -8.5,-1.85 -11.4,-4.8l273.45,-283.2l-278.05,0l0,-16l293.5,0z" fill="#ebedef"/>
        <polygon points="290.7,463.4 242.55,463.4 242.55,310.6 195.25,324.55 195.25,287.5 286.25,256 290.7,256" fill="#445a64"/>
        <polygon points="290.7,463.4 242.55,463.4 242.55,310.6 220.05,317.25 275.6,259.7 286.25,256 290.7,256" fill="#36464e"/>
        <path d="M48,48l416,0c8.8,0 16,7.2 16,16l0,144l-448,0l0,-144c0,-8.8 7.2,-16 16,-16z" fill="#ff8d00"/>
        <path d="M475.4,52.8c2.85,2.85 4.6,6.85 4.6,11.2l0,144l-154.5,0z" fill="#ff6e00"/>
        <path d="M384,80c17.65,0 32,14.35 32,32c0,17.65 -14.35,32 -32,32c-17.65,0 -32,-14.35 -32,-32c0,-17.65 14.35,-32 32,-32z M128,80c17.65,0 32,14.35 32,32c0,17.65 -14.35,32 -32,32c-17.65,0 -32,-14.35 -32,-32c0,-17.65 14.35,-32 32,-32z" fill="#445a64"/>
        <path d="M415.9,114.4c-1.1,15.4 -13.15,27.75 -28.4,29.4z" fill="#36464e"/>
        <path d="M384,0c8.8,0 16,7.2 16,16l0,96c0,8.8 -7.2,16 -16,16c-8.8,0 -16,-7.2 -16,-16l0,-96c0,-8.8 7.2,-16 16,-16z M128,0c8.8,0 16,7.2 16,16l0,96c0,8.8 -7.2,16 -16,16c-8.8,0 -16,-7.2 -16,-16l0,-96c0,-8.8 7.2,-16 16,-16z" fill="#8fa3ad"/>
        <path d="M384,0c8.8,0 16,7.2 16,16l0,96c0,8.8 -7.2,16 -16,16z M128,0c8.8,0 16,7.2 16,16l0,96c0,8.8 -7.2,16 -16,16z" fill="#788f9b"/>
    </g>
</svg>