<svg x="0" y="0" width="512" height="512" version="1.1"
    xmlns="http://www.w3.org/2000/svg"
    xmlns:xlink="http://www.w3.org/1999/xlink" viewBox="0 0 512 512">
    <title>calendar clock icon</title>
    <desc>calendar clock icon from the IconExperience.com G-Collection. Copyright by INCORS GmbH (www.incors.com).</desc>
    <g>
        <path d="M176,0c-97.2,0 -176,78.8 -176,176c0,97.2 78.8,176 176,176c97.2,0 176,-78.8 176,-176c0,-97.2 -78.8,-176 -176,-176z" fill="#788f9b"/>
        <path d="M51.55,300.45c68.75,68.75 180.15,68.75 248.9,0c68.75,-68.75 68.75,-180.15 0,-248.9z" fill="#546e7a"/>
        <path d="M176,32c79.55,0 144,64.45 144,144c0,79.55 -64.45,144 -144,144c-79.55,0 -144,-64.45 -144,-144c0,-79.55 64.45,-144 144,-144z" fill="#cdd7db"/>
        <path d="M176,48c70.7,0 128,57.3 128,128c0,70.7 -57.3,128 -128,128c-70.7,0 -128,-57.3 -128,-128c0,-70.7 57.3,-128 128,-128z" fill="#ebedef"/>
        <path d="M277.8,74.2c26.1,26.05 42.2,62.05 42.2,101.8c0,79.55 -64.45,144 -144,144c-39.75,0 -75.75,-16.1 -101.8,-42.2z" fill="#afbdc3"/>
        <path d="M266.5,85.5c23.15,23.15 37.5,55.15 37.5,90.5c0,70.7 -57.3,128 -128,128c-35.35,0 -67.35,-14.35 -90.5,-37.5z" fill="#cdd7db"/>
        <path d="M246.7,122.25l-47.5,47.55c0.5,1.95 0.8,4.05 0.8,6.2c0,13.25 -10.75,24 -24,24c-13.25,0 -24,-10.75 -24,-24c0,-2.15 0.3,-4.25 0.8,-6.2l-70.15,-70.15c-3.1,-3.15 -3.1,-8.2 0,-11.35l5.65,-5.65c3.15,-3.1 8.2,-3.1 11.35,0l70.15,70.15c1.95,-0.5 4.05,-0.8 6.2,-0.8c2.15,0 4.25,0.3 6.2,0.8l47.55,-47.5c3.1,-3.15 8.2,-3.15 11.3,0l5.65,5.65c3.15,3.1 3.15,8.2 0,11.3z" fill="#ff8d00"/>
        <path d="M176,200c13.25,0 24,-10.75 24,-24c0,-2.15 -0.3,-4.25 -0.8,-6.2l47.5,-47.55c3.15,-3.1 3.15,-8.2 0,-11.3l-2.8,-2.85l-84.85,84.85c4.3,4.35 10.3,7.05 16.95,7.05z" fill="#ff6e00"/>
        <path d="M176,164c6.65,0 12,5.35 12,12c0,6.65 -5.35,12 -12,12c-6.65,0 -12,-5.35 -12,-12c0,-6.65 5.35,-12 12,-12z" fill="#f9f9f9"/>
        <path d="M184.5,167.5c2.15,2.2 3.5,5.2 3.5,8.5c0,6.65 -5.35,12 -12,12c-3.3,0 -6.3,-1.35 -8.5,-3.5z" fill="#ebedef"/>
        <path d="M208,208l288,0c8.8,0 16,7.2 16,16l0,272c0,8.8 -7.2,16 -16,16l-288,0c-8.8,0 -16,-7.2 -16,-16l0,-272c0,-8.8 7.2,-16 16,-16z" fill="#ffffff"/>
        <path d="M507.2,212.6c2.95,2.9 4.8,6.95 4.8,11.4l0,272c0,8.8 -7.2,16 -16,16l-288,0c-4.35,0 -8.3,-1.75 -11.2,-4.6l197.3,-187.4l-202.1,0l0,-16l218.95,0z" fill="#ebedef"/>
        <path d="M208,208l288,0c8.8,0 16,7.2 16,16l0,80l-320,0l0,-80c0,-8.8 7.2,-16 16,-16z" fill="#ff8d00"/>
        <path d="M507.2,212.6c2.95,2.9 4.8,6.95 4.8,11.4l0,80l-101.05,0z" fill="#ff6e00"/>
        <path d="M320.25,482.55l-32.4,0l0,-106.5l-31.85,9.75l0,-25.8l61.3,-21.95l2.95,0z M459.85,482.55l-97.45,0l0,-21.85l44.85,-48.8c11.1,-13.05 16.6,-23.35 16.6,-31.05c0,-6.2 -1.3,-10.95 -3.9,-14.2c-2.65,-3.2 -6.45,-4.85 -11.4,-4.85c-4.95,0 -8.95,2.2 -12,6.5c-3.05,4.35 -4.6,9.75 -4.6,16.2l-32.4,0c0,-8.85 2.1,-17.05 6.4,-24.55c4.3,-7.5 10.2,-13.4 17.85,-17.6c7.6,-4.25 16.1,-6.35 25.5,-6.35c15.1,0 26.7,3.6 34.85,10.8c8.15,7.2 12.25,17.6 12.25,31.05c0,5.7 -1.05,11.2 -3.05,16.65c-2.05,5.4 -5.25,11.05 -9.55,16.95c-4.35,5.9 -11.3,13.85 -20.9,23.75l-18,21.5l54.95,0z" fill="#445a64"/>
        <path d="M320.25,482.5l-32.4,0l0,-61.55l32.4,-30.8z M459.85,482.5l-97.45,0l0,-21.8l44.85,-48.8c11.1,-13.05 16.6,-23.35 16.6,-31.05c0,-6.2 -1.3,-10.95 -3.9,-14.2c-2.65,-3.2 -6.45,-4.85 -11.4,-4.85c-4.95,0 -8.95,2.2 -12,6.5c-3.05,4.35 -4.6,9.75 -4.6,16.2l-32.4,0c0,-8.85 2.1,-17.05 6.4,-24.55c4.3,-7.5 10.2,-13.4 17.85,-17.6c7.6,-4.25 16.1,-6.35 25.5,-6.35c15.1,0 26.7,3.6 34.85,10.8c8.15,7.2 12.25,17.6 12.25,31.05c0,5.7 -1.05,11.2 -3.05,16.65c-2.05,5.4 -5.25,11.05 -9.55,16.95c-4.35,5.9 -11.3,13.85 -20.9,23.75l-18,21.5l54.95,0z" fill="#36464e"/>
        <path d="M256,212.5c15.2,0 27.5,12.3 27.5,27.5c0,15.2 -12.3,27.5 -27.5,27.5c-15.2,0 -27.5,-12.3 -27.5,-27.5c0,-15.2 12.3,-27.5 27.5,-27.5z M448,212.5c15.2,0 27.5,12.3 27.5,27.5c0,15.2 -12.3,27.5 -27.5,27.5c-15.2,0 -27.5,-12.3 -27.5,-27.5c0,-15.2 12.3,-27.5 27.5,-27.5z" fill="#445a64"/>
        <path d="M475.35,242.85c-1.4,13.35 -12.35,23.9 -25.95,24.6z" fill="#36464e"/>
        <path d="M448,160c8.8,0 16,7.2 16,16l0,64c0,8.8 -7.2,16 -16,16c-8.8,0 -16,-7.2 -16,-16l0,-64c0,-8.8 7.2,-16 16,-16z M256,160c8.8,0 16,7.2 16,16l0,64c0,8.8 -7.2,16 -16,16c-8.8,0 -16,-7.2 -16,-16l0,-64c0,-8.8 7.2,-16 16,-16z" fill="#8fa3ad"/>
        <path d="M448,160c8.8,0 16,7.2 16,16l0,64c0,8.8 -7.2,16 -16,16z M256,160c8.8,0 16,7.2 16,16l0,64c0,8.8 -7.2,16 -16,16z" fill="#788f9b"/>
    </g>
</svg>