<svg x="0" y="0" width="512" height="512" version="1.1"
    xmlns="http://www.w3.org/2000/svg"
    xmlns:xlink="http://www.w3.org/1999/xlink" viewBox="0 0 512 512">
    <title>clipboard check edit icon</title>
    <desc>clipboard check edit icon from the IconExperience.com G-Collection. Copyright by INCORS GmbH (www.incors.com).</desc>
    <g>
        <path d="M80,64l352,0c8.8,0 16,7.2 16,16l0,416c0,8.8 -7.2,16 -16,16l-352,0c-8.8,0 -16,-7.2 -16,-16l0,-416c0,-8.8 7.2,-16 16,-16z" fill="#ff8d00"/>
        <path d="M443.65,69.05c2.7,2.9 4.35,6.75 4.35,10.95l0,416c0,8.8 -7.2,16 -16,16l-352,0c-4.6,0 -8.75,-1.95 -11.65,-5.05z" fill="#ff6e00"/>
        <polygon points="96,96 416,96 416,480 96,480" fill="#ffffff"/>
        <polygon points="416,101.35 416,480 96,480 96,474.65 379.45,144 128,144 128,80 384,80 384,138.65" fill="#ebedef"/>
        <polygon points="327.4,141.6 361.3,175.5 236.85,299.95 169,232.1 202.95,198.15 236.85,232.1" fill="#afbdc3"/>
        <polygon points="344.35,158.55 361.3,175.5 236.85,299.95 169,232.1 185.95,215.1 236.85,266.05" fill="#8fa3ad"/>
        <path d="M256,0c28.45,0 53.95,12.35 71.55,32l40.45,0c8.8,0 16,7.2 16,16l0,80l-256,0l0,-80c0,-8.8 7.2,-16 16,-16l40.45,0c17.6,-19.65 43.1,-32 71.55,-32z M256,16c8.85,0 16,7.15 16,16c0,8.85 -7.15,16 -16,16c-8.85,0 -16,-7.15 -16,-16c0,-8.85 7.15,-16 16,-16z" fill="#788f9b"/>
        <polygon points="128,80 384,80 384,128 128,128" fill="#546e7a"/>
        <polygon points="412.1,183.25 473.9,245 314.3,404.6 252.5,342.85" fill="#28b5f5"/>
        <polygon points="443,214.1 473.9,245 314.3,404.6 283.4,373.7" fill="#0299e3"/>
        <path d="M314.3,404.6l-87.4,42.15c-4.8,2.35 -10.3,1.3 -14.05,-2.45c-3.8,-3.8 -4.85,-9.3 -2.5,-14.1l42.15,-87.35z" fill="#ffcb7f"/>
        <path d="M314.3,404.6l-87.4,42.15c-4.8,2.35 -10.3,1.3 -14.05,-2.45l70.55,-70.6z" fill="#ffb54c"/>
        <path d="M254.8,433.3l-27.9,13.45c-4.8,2.35 -10.3,1.3 -14.05,-2.45c-3.8,-3.8 -4.85,-9.3 -2.5,-14.1l13.45,-27.9z" fill="#788f9b"/>
        <path d="M254.8,433.3l-27.9,13.45c-4.8,2.35 -10.3,1.3 -14.05,-2.45l26.45,-26.5z" fill="#546e7a"/>
        <path d="M508.35,210.5l-35.3,35.3l-61.75,-61.75l35.3,-35.3c4.85,-4.85 12.8,-4.85 17.65,0l44.1,44.1c4.85,4.85 4.85,12.8 0,17.65z" fill="#ff7042"/>
        <path d="M486.3,170.8l22.05,22.05c4.85,4.85 4.85,12.8 0,17.65l-35.3,35.3l-30.85,-30.9z" fill="#f3501e"/>
    </g>
</svg>