<svg x="0" y="0" width="512" height="512" version="1.1"
    xmlns="http://www.w3.org/2000/svg"
    xmlns:xlink="http://www.w3.org/1999/xlink" viewBox="0 0 512 512">
    <title>desktop icon</title>
    <desc>desktop icon from the IconExperience.com G-Collection. Copyright by INCORS GmbH (www.incors.com).</desc>
    <g>
        <path d="M16,64l480,0c8.8,0 16,7.2 16,16l0,384c0,8.8 -7.2,16 -16,16l-480,0c-8.8,0 -16,-7.2 -16,-16l0,-384c0,-8.8 7.2,-16 16,-16z" fill="#ed6c00"/>
        <path d="M506.8,68.2c3.2,2.95 5.2,7.15 5.2,11.8l0,384c0,8.8 -7.2,16 -16,16l-480,0c-4.15,0 -7.95,-1.6 -10.8,-4.2z" fill="#e55000"/>
        <polygon points="144,128 368,128 368,416 144,416" fill="#ffffff"/>
        <polygon points="368,181 368,416 144,416 144,363" fill="#e6e6e6"/>
        <path d="M16,64l96,0l-112,112l0,-96c0,-8.8 7.2,-16 16,-16z M400,64l96,0c8.8,0 16,7.2 16,16l0,96z M16,480l96,0l-112,-112l0,96c0,8.8 7.2,16 16,16z M400,480l96,0c8.8,0 16,-7.2 16,-16l0,-96z" fill="#788f9b"/>
        <path d="M5.2,475.8l56.6,-46l50.2,50.2l-96,0c-4.15,0 -7.95,-1.6 -10.8,-4.2z M450.2,114.2l56.6,-46c3.2,2.95 5.2,7.15 5.2,11.8l0,96z M400,480l96,0c8.8,0 16,-7.2 16,-16l0,-96z" fill="#546e7a"/>
        <path d="M252.85,437.55c-0.15,-21.15 18.5,-42 34.2,-56.6c-7.5,-7.5 -15.05,-15.05 -22.6,-22.6c-14.6,15.75 -35.4,34.4 -56.55,34.2c-3.3,0 -6.55,2.65 -7.35,6c-4.8,20.9 -14.95,49.95 -24.35,63.25l7.45,7.45c13.3,-9.45 42.35,-19.55 63.25,-24.4c3.35,-0.75 6,-4.05 5.95,-7.3z M224.85,420.55c3.3,3.35 3.3,8.7 0,12c-3.3,3.3 -8.65,3.3 -12,0c-3.3,-3.3 -3.3,-8.65 0,-12c3.35,-3.3 8.7,-3.3 12,0z" fill="#ffed58"/>
        <path d="M252.85,437.55c-0.15,-21.15 18.5,-42 34.2,-56.6l-11.3,-11.3l-15.95,16l-11.55,-11.6c-5.95,5.05 -12.35,9.65 -19,12.95l14.55,14.6l-18.95,18.95c3.3,3.35 3.3,8.7 0,12c-3.3,3.3 -8.65,3.3 -12,0l-32.9,32.95l3.7,3.75c13.3,-9.45 42.35,-19.55 63.25,-24.4c3.35,-0.75 6,-4.05 5.95,-7.3z" fill="#fbd734"/>
        <path d="M457.85,151.2c-36.8,25.9 -86.6,66.4 -146.65,126.45c-33.9,33.9 -61.8,68.5 -73.95,94c-2.05,4.3 -1.1,9.35 2.45,12.9l21.05,21.05c3.55,3.55 8.6,4.5 12.9,2.45c25.55,-12.1 60.2,-39.95 94.15,-73.85c60,-60.05 100.5,-109.85 126.4,-146.65c4.5,-6.4 3.75,-14.95 -1.8,-20.5l-14.05,-14.05c-5.55,-5.55 -14.1,-6.3 -20.5,-1.8z" fill="#788f9b"/>
        <path d="M250.2,395.1l10.55,10.5c3.55,3.55 8.6,4.5 12.9,2.45c25.55,-12.1 60.2,-39.95 94.15,-73.85c60,-60.05 100.5,-109.85 126.4,-146.65c4.5,-6.4 3.75,-14.95 -1.8,-20.5l-7,-7.05l-38.25,38.25l-22.4,-22.4c-2.8,2.2 -5.65,4.5 -8.55,6.8l23.25,23.3z" fill="#546e7a"/>
        <path d="M292.8,296.75c-25.45,27.5 -45.7,54.2 -55.55,74.9c-2.05,4.3 -1.1,9.35 2.45,12.9l21.05,21.05c3.55,3.55 8.6,4.5 12.9,2.45c20.7,-9.85 47.5,-30.05 75,-55.45z M457.85,151.2c-5.2,3.7 -10.65,7.65 -16.35,11.9l40.85,40.85c4.25,-5.75 8.2,-11.2 11.85,-16.4c4.5,-6.4 3.75,-14.95 -1.8,-20.5l-14.05,-14.05c-5.55,-5.55 -14.1,-6.3 -20.5,-1.8z" fill="#546e7a"/>
        <path d="M482.35,203.95c4.25,-5.75 8.2,-11.2 11.85,-16.4c4.5,-6.4 3.75,-14.95 -1.8,-20.5l-7,-7.05l-23.5,23.5z M250.2,395.1l10.55,10.5c3.55,3.55 8.6,4.5 12.9,2.45c20.7,-9.85 47.5,-30.05 75,-55.45l-27.95,-27.95z" fill="#445a64"/>
        <path d="M325.45,251.65c-4.4,-4.4 -4.4,-11.55 0,-16l78.55,-78.1c8.85,-8.8 23.15,-8.8 31.95,0l46.55,46.2c-4.3,5.75 -8.95,11.8 -13.85,18.1l-48.65,-48.35c-4.4,-4.4 -11.6,-4.35 -16,0l-59.25,58.85c-1.75,1.7 -2.15,4.25 -1.1,6.45c2,4.2 1.25,9.35 -2.25,12.85c-4.4,4.4 -11.55,4.4 -15.95,0z" fill="#ffc928"/>
        <path d="M462,183.4l20.5,20.35c-4.3,5.75 -8.95,11.8 -13.85,18.1l-22.65,-22.45z" fill="#ffb100"/>
    </g>
</svg>