<svg x="0" y="0" width="512" height="512" version="1.1"
    xmlns="http://www.w3.org/2000/svg"
    xmlns:xlink="http://www.w3.org/1999/xlink" viewBox="0 0 512 512">
    <title>document view icon</title>
    <desc>document view icon from the IconExperience.com G-Collection. Copyright by INCORS GmbH (www.incors.com).</desc>
    <g>
        <path d="M288,0l-216,0c-4.4,0 -8,3.6 -8,8l0,496c0,4.4 3.6,8 8,8l368,0c4.4,0 8,-3.6 8,-8l0,-344c0,-8.85 -3.6,-16.85 -9.4,-22.65l-127.95,-127.95c-5.8,-5.8 -13.8,-9.4 -22.65,-9.4z" fill="#dff3fd"/>
        <path d="M66.1,509.35c1.45,1.65 3.55,2.65 5.9,2.65l368,0c4.4,0 8,-3.6 8,-8l0,-344c0,-8.85 -3.6,-16.85 -9.4,-22.65c-5.8,-5.75 -13.8,-9.35 -22.6,-9.35l-48,0z" fill="#b1e3fb"/>
        <path d="M438.6,137.35c-5.8,-5.75 -13.8,-9.35 -22.6,-9.35l-88,0c-4.4,0 -8,-3.6 -8,-8l0,-88c0,-8.5 -3.4,-16.6 -9.4,-22.6z" fill="#28b5f5"/>
        <polygon points="385.25,390.15 317.55,322.45 290.45,349.55 358.15,417.25" fill="#788f9b"/>
        <polygon points="304,336 290.45,349.55 358.15,417.25 371.7,403.7" fill="#546e7a"/>
        <path d="M478.3,468.8l-102.5,-102.45c-2.25,-2.3 -6,-2.3 -8.25,0l-33.2,33.2c-2.3,2.25 -2.3,6 0,8.25l102.45,102.5c2.3,2.25 6,2.25 8.3,0l16.6,-16.6l16.6,-16.6c2.25,-2.3 2.25,-6 0,-8.3z" fill="#ffa526"/>
        <path d="M350.95,382.95l-16.6,16.6c-2.3,2.25 -2.3,6 0,8.25l102.45,102.5c2.3,2.25 6,2.25 8.3,0l16.6,-16.6z" fill="#f98b00"/>
        <path d="M249.85,160c67.3,0 121.85,54.55 121.85,121.85c0,67.3 -54.55,121.85 -121.85,121.85c-67.3,0 -121.85,-54.55 -121.85,-121.85c0,-67.3 54.55,-121.85 121.85,-121.85z" fill="#788f9b"/>
        <path d="M249.85,192c49.6,0 89.85,40.2 89.85,89.85c0,49.6 -40.25,89.85 -89.85,89.85c-49.6,0 -89.85,-40.25 -89.85,-89.85c0,-49.65 40.25,-89.85 89.85,-89.85z" fill="#ffffff"/>
        <path d="M303.35,209.65c22.05,16.4 36.35,42.6 36.35,72.2c0,49.6 -40.25,89.85 -89.85,89.85c-22.1,0 -42.35,-8 -58,-21.2z" fill="#ebedef"/>
    </g>
</svg>