<svg x="0" y="0" width="512" height="512" version="1.1"
    xmlns="http://www.w3.org/2000/svg"
    xmlns:xlink="http://www.w3.org/1999/xlink" viewBox="0 0 512 512">
    <title>folder document2 icon</title>
    <desc>folder document2 icon from the IconExperience.com G-Collection. Copyright by INCORS GmbH (www.incors.com).</desc>
    <g>
        <path d="M186.35,45.8l14.05,20.4c6.15,8.9 15.45,13.8 26.3,13.8l261.3,0c4.4,0 8,3.6 8,8l0,352c0,4.4 -3.6,8 -8,8l-464,0c-4.4,0 -8,-3.6 -8,-8l0,-400c0,-4.4 3.6,-8 8,-8l136,0c10.85,0 20.2,4.9 26.35,13.8z" fill="#ffb100"/>
        <path d="M165.55,144l-141.55,0c-4.4,0 -8,3.6 -8,8l0,288c0,4.4 3.6,8 8,8l464,0c4.4,0 8,-3.6 8,-8l0,-320c0,-4.4 -3.6,-8 -8,-8l-265.05,0c-9.35,0 -17.4,3.55 -23.7,10.5l-10,11c-6.3,6.95 -14.35,10.5 -23.7,10.5z" fill="#ffd34e"/>
        <path d="M18.7,446c1.4,1.25 3.25,2 5.3,2l464,0c4.4,0 8,-3.6 8,-8l0,-320c0,-2.4 -1.05,-4.5 -2.7,-6z" fill="#ffc928"/>
        <path d="M232,144c-4.4,0 -8,3.6 -8,8l0,216l0,136c0,4.4 3.6,8 8,8l272,0c4.4,0 8,-3.6 8,-8l0,-234.75c0,-8.8 -3.15,-16.4 -9.35,-22.6l-93.3,-93.3c-6.2,-6.2 -13.8,-9.35 -22.6,-9.35z" fill="#dff3fd"/>
        <path d="M475.8,219.8l-249.7,289.55c1.45,1.65 3.55,2.65 5.9,2.65l272,0c4.4,0 8,-3.6 8,-8l0,-234.75c0,-8.8 -3.15,-16.4 -9.35,-22.6z" fill="#b1e3fb"/>
        <path d="M506.9,251.85c-1.2,-1.85 -2.65,-3.6 -4.25,-5.2l-93.3,-93.3c-1.6,-1.6 -3.35,-3.05 -5.2,-4.25c11.85,10.9 11.9,16.65 11.85,26.9l-0.2,56.25c0,4.4 3.6,8 8,8l56.2,-0.25c8.75,-0.05 16,0 26.9,11.85z" fill="#28b5f5"/>
    </g>
</svg>