<svg x="0" y="0" width="512" height="512" version="1.1"
    xmlns="http://www.w3.org/2000/svg"
    xmlns:xlink="http://www.w3.org/1999/xlink" viewBox="0 0 512 512">
    <title>gauge icon</title>
    <desc>gauge icon from the IconExperience.com G-Collection. Copyright by INCORS GmbH (www.incors.com).</desc>
    <g>
        <path d="M256,32c123.7,0 224,100.3 224,224c0,123.7 -100.3,224 -224,224c-123.7,0 -224,-100.3 -224,-224c0,-123.7 100.3,-224 224,-224z" fill="#546e7a"/>
        <path d="M414.4,97.6c40.55,40.55 65.6,96.55 65.6,158.4c0,123.7 -100.3,224 -224,224c-61.85,0 -117.85,-25.05 -158.4,-65.6z" fill="#445a64"/>
        <path d="M256,16c132.55,0 240,107.45 240,240c0,132.55 -107.45,240 -240,240c-132.55,0 -240,-107.45 -240,-240c0,-132.55 107.45,-240 240,-240z M256,48c-114.9,0 -208,93.1 -208,208c0,114.9 93.1,208 208,208c114.9,0 208,-93.1 208,-208c0,-114.9 -93.1,-208 -208,-208z" fill="#cdd7db"/>
        <path d="M425.7,86.3c43.45,43.45 70.3,103.45 70.3,169.7c0,132.55 -107.45,240 -240,240c-66.25,0 -126.25,-26.85 -169.7,-70.3l22.6,-22.6c37.65,37.6 89.65,60.9 147.1,60.9c114.9,0 208,-93.1 208,-208c0,-57.45 -23.3,-109.45 -60.9,-147.1z" fill="#afbdc3"/>
        <path d="M256,80c97.2,0 176,78.8 176,176c0,66.2 -36.55,123.8 -90.5,153.85l-15.55,-27.95c44.15,-24.6 74.05,-71.75 74.05,-125.9c0,-79.55 -64.45,-144 -144,-144c-79.55,0 -144,64.45 -144,144c0,54.15 29.9,101.3 74.05,125.9l-15.55,27.95c-53.95,-30.05 -90.5,-87.65 -90.5,-153.85c0,-97.2 78.8,-176 176,-176z" fill="#788f9b"/>
        <path d="M380.45,131.55c31.85,31.85 51.55,75.85 51.55,124.45c0,66.2 -36.55,123.8 -90.5,153.85l-15.55,-27.95c44.15,-24.6 74.05,-71.75 74.05,-125.9c0,-39.75 -16.1,-75.75 -42.2,-101.8z M154.2,357.8c9.4,9.45 20.15,17.55 31.85,24.1l-15.55,27.95c-14.3,-7.95 -27.45,-17.9 -38.95,-29.4z" fill="#546e7a"/>
        <path d="M256,208c5.45,0 10.7,0.9 15.55,2.6l109.65,-82.25c0.7,-0.5 1.65,-0.45 2.3,0.15c0.6,0.65 0.65,1.6 0.15,2.3l-82.25,109.65c1.7,4.85 2.6,10.1 2.6,15.55c0,26.5 -21.5,48 -48,48c-26.5,0 -48,-21.5 -48,-48c0,-26.5 21.5,-48 48,-48z" fill="#ffb100"/>
        <path d="M383.5,128.5c0.6,0.65 0.65,1.6 0.15,2.3l-82.25,109.65c1.7,4.85 2.6,10.1 2.6,15.55c0,26.5 -21.5,48 -48,48c-13.25,0 -25.25,-5.35 -33.95,-14.05z" fill="#ff9f00"/>
        <path d="M256,48c114.9,0 208,93.1 208,208c0,2.7 -0.05,5.35 -0.15,8c-4.2,-111.15 -95.65,-200 -207.85,-200c-112.2,0 -203.65,88.85 -207.85,200c-0.1,-2.65 -0.15,-5.3 -0.15,-8c0,-114.9 93.1,-208 208,-208z" fill="#445a64"/>
    </g>
</svg>