<svg x="0" y="0" width="512" height="512" version="1.1"
    xmlns="http://www.w3.org/2000/svg"
    xmlns:xlink="http://www.w3.org/1999/xlink" viewBox="0 0 512 512">
    <title>auction hammer icon</title>
    <desc>auction hammer icon from the IconExperience.com G-Collection. Copyright by INCORS GmbH (www.incors.com).</desc>
    <g>
        <path d="M304,416l16,0l0,-16c0,-8.8 7.2,-16 16,-16l128,0c8.8,0 16,7.2 16,16l0,16l16,0c8.8,0 16,7.2 16,16l0,48l-224,0l0,-48c0,-8.8 7.2,-16 16,-16z" fill="#788f9b"/>
        <path d="M400,384l64,0c8.8,0 16,7.2 16,16l0,16l16,0c8.8,0 16,7.2 16,16l0,48l-112,0z" fill="#546e7a"/>
        <path d="M285.6,42.65l2.85,2.8c4.2,4.25 5.7,10 4.05,15.7c-1.6,5.7 0.5,11.5 4.4,15.45c3.95,3.9 9.75,6 15.4,4.35c5.75,-1.6 11.5,-0.1 15.7,4.1l50.95,50.95c4.2,4.2 5.7,9.95 4.1,15.7c-1.65,5.65 0.45,11.45 4.4,15.4c3.9,3.9 9.7,6 15.4,4.4c5.7,-1.65 11.45,-0.15 15.7,4.05l2.8,2.85c12.5,12.45 12.5,32.8 0,45.25l-56.55,56.55c-12.45,12.5 -32.8,12.5 -45.25,0l-2.85,-2.8c-4.2,-4.25 -5.7,-10 -4.05,-15.7c1.6,-5.7 -0.5,-11.5 -4.4,-15.4c-3.95,-3.95 -9.75,-6.05 -15.4,-4.4c-4.45,1.25 -8.85,0.65 -12.55,-1.6l-11.65,11.65c-22.65,0 -22.65,0 -56.6,33.95c-33.95,33.9 -57.9,80.55 -79.2,101.8l-67.85,67.9c-29.8,29.75 -86.35,-26.8 -56.6,-56.6l67.9,-67.85c21.25,-21.3 67.9,-45.25 101.8,-79.2c33.95,-33.95 33.95,-33.95 33.95,-56.6l11.65,-11.65c-2.25,-3.7 -2.85,-8.1 -1.6,-12.55c1.65,-5.65 -0.45,-11.45 -4.4,-15.4c-3.9,-3.9 -9.7,-6 -15.4,-4.4c-5.7,1.65 -11.45,0.15 -15.7,-4.05l-2.8,-2.85c-12.5,-12.45 -12.5,-32.8 0,-45.25l56.55,-56.55c12.45,-12.5 32.8,-12.5 45.25,0z" fill="#a8631b"/>
        <path d="M353.5,110.5l25.45,25.5c4.2,4.2 5.7,9.95 4.1,15.7c-1.65,5.65 0.45,11.45 4.4,15.4c3.9,3.9 9.7,6 15.4,4.4c5.7,-1.65 11.45,-0.15 15.7,4.05l2.8,2.85c12.5,12.45 12.5,32.8 0,45.25l-56.55,56.55c-12.45,12.5 -32.8,12.5 -45.25,0l-2.85,-2.8c-4.2,-4.25 -5.7,-10 -4.05,-15.7c1.6,-5.7 -0.5,-11.5 -4.4,-15.4c-3.95,-3.95 -9.75,-6.05 -15.4,-4.4c-4.45,1.25 -8.85,0.65 -12.55,-1.6l-11.65,11.65c-22.65,0 -22.65,0 -56.6,33.95c-33.95,33.9 -57.9,80.55 -79.2,101.8l-67.85,67.9c-14.9,14.9 -36.5,8.2 -50.65,-5.95l226,-226l-28.3,-28.3l11.65,-11.65l28.3,28.3z" fill="#965716"/>
    </g>
</svg>