<svg x="0" y="0" width="512" height="512" version="1.1"
    xmlns="http://www.w3.org/2000/svg"
    xmlns:xlink="http://www.w3.org/1999/xlink" viewBox="0 0 512 512">
    <title>list style numbered icon</title>
    <desc>list style numbered icon from the IconExperience.com G-Collection. Copyright by INCORS GmbH (www.incors.com).</desc>
    <g>
        <path d="M176,64l304,0l0,16l-304,0z M176,432l144,0l0,16l-144,0z M176,384l304,0l0,16l-304,0z M176,336l304,0l0,16l-304,0z M176,288l304,0l0,16l-304,0z M176,208l192,0l0,16l-192,0z M176,160l304,0l0,16l-304,0z M176,112l304,0l0,16l-304,0z" fill="#546e7a"/>
        <path d="M480,64l0,16l-12.65,0z M176,448l12.65,-16l131.35,0l0,16z M214,400l12.65,-16l253.35,0l0,16z M252,352l12.65,-16l215.35,0l0,16z M290,304l12.65,-16l177.35,0l0,16z M353.35,224l12.65,-16l2,0l0,16z M391.35,176l12.65,-16l76,0l0,16z M429.35,128l12.65,-16l38,0l0,16z" fill="#445a64"/>
        <path d="M112,384l-66.05,0l0,-14.3l30.4,-31.95c7.5,-8.55 11.25,-15.35 11.25,-20.35c0,-4.1 -0.9,-7.2 -2.65,-9.3c-1.8,-2.15 -4.35,-3.2 -7.7,-3.2c-3.35,0 -6.1,1.45 -8.15,4.25c-2.1,2.85 -3.1,6.4 -3.1,10.65l-22,0c0,-5.8 1.45,-11.2 4.35,-16.1c2.9,-4.9 6.95,-8.8 12.1,-11.55c5.15,-2.75 10.9,-4.15 17.3,-4.15c10.2,0 18.1,2.35 23.6,7.1c5.55,4.7 8.3,11.5 8.3,20.35c0,3.7 -0.7,7.3 -2.05,10.85c-1.4,3.55 -3.55,7.25 -6.5,11.1c-2.9,3.9 -7.65,9.1 -14.15,15.6l-12.2,14.1l37.25,0z M96,160l-22.3,0l0,-70.75l-21.85,6.5l0,-17.15l42.1,-14.6l2.05,0z" fill="#ed6c00"/>
    </g>
</svg>