<svg x="0" y="0" width="512" height="512" version="1.1"
    xmlns="http://www.w3.org/2000/svg"
    xmlns:xlink="http://www.w3.org/1999/xlink" viewBox="0 0 512 512">
    <title>medal2 icon</title>
    <desc>medal2 icon from the IconExperience.com G-Collection. Copyright by INCORS GmbH (www.incors.com).</desc>
    <g>
        <path d="M64,130.75l0,-114.75c0,-8.8 7.2,-16 16,-16l352,0c8.8,0 16,7.2 16,16l0,114.75c0,8.8 -3.15,16.4 -9.35,22.6l-182.65,182.65l-182.65,-182.65c-6.2,-6.2 -9.35,-13.8 -9.35,-22.6z" fill="#4ec1f5"/>
        <path d="M256,0l176,0c8.8,0 16,7.2 16,16l0,114.75c0,8.8 -3.15,16.4 -9.35,22.6l-182.65,182.65z" fill="#0299e3"/>
        <polygon points="192,0 320,0 320,272 256,336 192,272" fill="#dff3fd"/>
        <polygon points="256,0 320,0 320,272 288,304 256,304" fill="#b1e3fb"/>
        <path d="M444.3,299.35l-100.35,72.6l38.5,117.7c2.35,7.2 -0.1,14.75 -6.2,19.2c-6.15,4.45 -14.1,4.45 -20.2,0l-100.05,-73l-100.05,73c-6.1,4.45 -14.05,4.45 -20.2,0c-6.1,-4.45 -8.55,-12 -6.2,-19.2l38.5,-117.7l-100.35,-72.6c-6.15,-4.45 -8.6,-12 -6.25,-19.2c2.35,-7.2 8.75,-11.85 16.35,-11.85l123.85,0.25l38,-117.85c2.35,-7.25 8.8,-11.9 16.35,-11.9c7.55,0 14,4.7 16.35,11.9l38,117.85l123.85,-0.25c7.6,0 14,4.65 16.35,11.85c2.35,7.2 -0.1,14.75 -6.25,19.2z" fill="#fbd734"/>
        <path d="M444.3,299.35l-100.35,72.6l38.5,117.7c2.35,7.2 -0.1,14.75 -6.2,19.2c-6.15,4.45 -14.1,4.45 -20.2,0l-100.05,-73l0,-297.05c7.55,0 14,4.7 16.35,11.9l38,117.85l123.85,-0.25c7.6,0 14,4.65 16.35,11.85c2.35,7.2 -0.1,14.75 -6.25,19.2z" fill="#f9bf2c"/>
    </g>
</svg>