<svg x="0" y="0" width="512" height="512" version="1.1"
    xmlns="http://www.w3.org/2000/svg"
    xmlns:xlink="http://www.w3.org/1999/xlink" viewBox="0 0 512 512">
    <title>note pinned icon</title>
    <desc>note pinned icon from the IconExperience.com G-Collection. Copyright by INCORS GmbH (www.incors.com).</desc>
    <g>
        <path d="M336,480l-296,0c-4.4,0 -8,-3.6 -8,-8l0,-432c0,-4.4 3.6,-8 8,-8l432,0c4.4,0 8,3.6 8,8l0,296c0,8.8 -3.6,16.85 -9.4,22.65l-111.95,111.95c-5.8,5.8 -13.85,9.4 -22.65,9.4z" fill="#ffed58"/>
        <path d="M336,480l-296,0c-2.2,0 -4.2,-0.9 -5.65,-2.35l443.3,-443.3c1.45,1.45 2.35,3.45 2.35,5.65l0,296c0,8.8 -3.6,16.85 -9.4,22.65l-111.95,111.95c-5.8,5.8 -13.85,9.4 -22.65,9.4z" fill="#fbd734"/>
        <path d="M470.6,358.65c-5.8,5.75 -13.8,9.35 -22.6,9.35l-72,0c-4.4,0 -8,3.6 -8,8l0,72c0,8.5 -3.4,16.6 -9.4,22.6z" fill="#f7a724"/>
        <path d="M24.2,69.45l45.25,-45.25l93.15,113.3c6,7.3 3.35,16.55 -2.6,22.5c-5.95,5.95 -15.2,8.6 -22.5,2.6z" fill="#788f9b"/>
        <path d="M24.2,69.45l45.25,-45.25l64.55,78.55c-3.6,6.55 -8.15,12.55 -13.45,17.8l39.45,39.45c-5.95,5.95 -15.2,8.6 -22.5,2.6z" fill="#546e7a"/>
        <path d="M64,0c35.35,0 64,28.65 64,64c0,35.35 -28.65,64 -64,64c-35.35,0 -64,-28.65 -64,-64c0,-35.35 28.65,-64 64,-64z" fill="#ed6c00"/>
        <path d="M109.25,18.75c25,25 25,65.5 0,90.5c-25,25 -65.5,25 -90.5,0z" fill="#e55000"/>
    </g>
</svg>