<svg x="0" y="0" width="512" height="512" version="1.1"
    xmlns="http://www.w3.org/2000/svg"
    xmlns:xlink="http://www.w3.org/1999/xlink" viewBox="0 0 512 512">
    <title>score board icon</title>
    <desc>score board icon from the IconExperience.com G-Collection. Copyright by INCORS GmbH (www.incors.com).</desc>
    <g>
        <polygon points="0,64 512,64 512,448 0,448" fill="#546e7a"/>
        <polygon points="512,64 512,448 0,448" fill="#445a64"/>
        <polygon points="16,80 496,80 496,432 16,432" fill="#445a64"/>
        <polygon points="490.65,80 496,80 496,432 21.35,432" fill="#36464e"/>
        <polygon points="64,112 208,112 208,160 64,160" fill="#ff8d00"/>
        <polygon points="304,112 448,112 448,160 304,160" fill="#85d435"/>
        <polygon points="448,112 448,160 384,160" fill="#68ba1c"/>
        <polygon points="144,368 368,368 368,400 144,400" fill="#cdd7db"/>
        <path d="M412,208c-1.5,0 -2.9,-0.4 -4.1,-1.15c0.1,0.75 0.1,1.5 0,2.25l-6.75,47.45c0.85,-0.35 1.85,-0.55 2.85,-0.55l40,0c2.1,0 4,0.8 5.45,2.15c-0.3,-1.05 -0.4,-2.15 -0.2,-3.3l6.85,-48c-1.2,0.75 -2.6,1.15 -4.1,1.15z M256,272c8.85,0 16,7.15 16,16c0,8.85 -7.15,16 -16,16c-8.85,0 -16,-7.15 -16,-16c0,-8.85 7.15,-16 16,-16z M256,224c8.85,0 16,7.15 16,16c0,8.85 -7.15,16 -16,16c-8.85,0 -16,-7.15 -16,-16c0,-8.85 7.15,-16 16,-16z M56.1,206.85c0.6,-4.35 4.65,-7.4 9,-6.75c1.1,0.15 2.1,0.5 3,1.05c-0.05,-0.4 -0.1,-0.75 -0.1,-1.15c0,-4.4 3.6,-8 8,-8l40,0c4.4,0 8,3.6 8,8c0,4.4 -3.6,8 -8,8l-40,0c-1.5,0 -2.9,-0.4 -4.1,-1.15c0.1,0.75 0.1,1.5 0,2.25l-6.75,47.45c0.85,-0.35 1.85,-0.55 2.85,-0.55l40,0c4.4,0 8,3.6 8,8c0,0.2 0,0.35 0,0.55c1.2,-0.5 2.6,-0.65 4,-0.45c4.35,0.6 7.4,4.65 6.75,9l-6.85,48.05c-0.6,4.35 -4.65,7.4 -9.05,6.75c-1.05,-0.15 -2.05,-0.5 -2.95,-1.05c0.05,0.4 0.1,0.75 0.1,1.15c0,4.4 -3.6,8 -8,8l-40,0c-4.4,0 -8,-3.6 -8,-8c0,-0.4 0.05,-0.75 0.1,-1.15c-1.55,0.9 -3.35,1.3 -5.2,1.05c-4.4,-0.6 -7.45,-4.65 -6.8,-9l6.85,-48.05c0.6,-4.35 4.65,-7.4 9.05,-6.75c1.65,0.25 3.15,1 4.3,2.05c-0.2,-0.7 -0.3,-1.4 -0.3,-2.15c0,-0.2 0,-0.35 0,-0.55c-1.2,0.5 -2.6,0.65 -4,0.45c-4.35,-0.6 -7.4,-4.65 -6.75,-9.05z M55.9,321.15c1.2,-0.75 2.6,-1.15 4.1,-1.15l40,0c1.5,0 2.9,0.4 4.1,1.1c-0.1,-0.7 -0.1,-1.45 0,-2.2l6.75,-47.45c-0.85,0.35 -1.85,0.55 -2.85,0.55l-40,0c-2.1,0 -4,-0.8 -5.45,-2.15c0.3,1.05 0.35,2.15 0.2,3.25z M198.95,270.85c0.6,-4.35 4.65,-7.4 9.05,-6.75c4.35,0.6 7.4,4.65 6.75,9l-6.85,48.05c-0.6,4.35 -4.65,7.4 -9,6.75c-4.4,-0.6 -7.45,-4.65 -6.8,-9z M211.9,201.15c1.55,-0.9 3.35,-1.3 5.25,-1.05c4.35,0.6 7.4,4.65 6.75,9l-6.85,48.05c-0.6,4.35 -4.65,7.4 -9.05,6.75c-4.35,-0.6 -7.4,-4.65 -6.75,-9.05l6.85,-48c-1.2,0.75 -2.6,1.15 -4.1,1.15l-40,0c-4.4,0 -8,-3.6 -8,-8c0,-4.4 3.6,-8 8,-8l40,0c4.4,0 8,3.6 8,8c0,0.4 -0.05,0.75 -0.1,1.15z M304.1,206.85c0.6,-4.35 4.65,-7.4 9.05,-6.75c4.35,0.6 7.4,4.65 6.75,9l-6.75,47.45c0.85,-0.35 1.85,-0.55 2.85,-0.55l40,0c2.1,0 4,0.8 5.45,2.15c-0.3,-1.05 -0.35,-2.15 -0.2,-3.3l6.85,-48c0.6,-4.35 4.65,-7.4 9.05,-6.75c4.35,0.6 7.4,4.65 6.75,9l-6.85,48.05c-0.6,4.35 -4.65,7.4 -9.05,6.75c-1.65,-0.25 -3.15,-1 -4.3,-2.05c0.2,0.7 0.3,1.4 0.3,2.15c0,0.2 0,0.35 0,0.55c1.2,-0.5 2.6,-0.65 4,-0.45c4.35,0.6 7.4,4.65 6.75,9l-6.85,48.05c-0.6,4.35 -4.65,7.4 -9,6.75c-4.4,-0.6 -7.45,-4.65 -6.8,-9l6.75,-47.45c-0.85,0.35 -1.85,0.55 -2.85,0.55l-40,0c-4.4,0 -8,-3.6 -8,-8c0,-0.2 0,-0.35 0,-0.55c-1.2,0.5 -2.6,0.65 -4,0.45c-4.35,-0.6 -7.4,-4.65 -6.75,-9.05z M404.1,201.15c-0.05,-0.4 -0.1,-0.75 -0.1,-1.15c0,-4.4 3.6,-8 8,-8l40,0c4.4,0 8,3.6 8,8c0,0.4 -0.05,0.75 -0.1,1.15c1.55,-0.9 3.35,-1.3 5.2,-1.05c4.4,0.6 7.45,4.65 6.8,9l-6.85,48.05c-0.6,4.35 -4.65,7.4 -9.05,6.75c-1.65,-0.25 -3.15,-1 -4.3,-2.05c0.2,0.7 0.3,1.4 0.3,2.15c0,0.2 0,0.35 0,0.55c1.2,-0.5 2.6,-0.65 4,-0.45c4.35,0.6 7.4,4.65 6.75,9l-6.85,48.05c-0.6,4.35 -4.65,7.4 -9.05,6.75c-1.05,-0.15 -2.05,-0.5 -2.95,-1.05c0.05,0.4 0.1,0.75 0.1,1.15c0,4.4 -3.6,8 -8,8l-40,0c-4.4,0 -8,-3.6 -8,-8c0,-4.4 3.6,-8 8,-8l40,0c1.5,0 2.9,0.4 4.1,1.1c-0.1,-0.7 -0.1,-1.45 0,-2.2l6.75,-47.45c-0.85,0.35 -1.85,0.55 -2.85,0.55l-40,0c-4.4,0 -8,-3.6 -8,-8c0,-0.2 0,-0.35 0,-0.55c-1.2,0.5 -2.6,0.65 -4,0.45c-4.35,-0.6 -7.4,-4.65 -6.75,-9.05l6.85,-48c0.6,-4.35 4.65,-7.4 9,-6.75c1.1,0.15 2.1,0.5 3,1.05z" fill="#ffc928"/>
        <path d="M412,208c-1.5,0 -2.9,-0.4 -4.1,-1.15c0.1,0.75 0.1,1.5 0,2.25l-6.75,47.45c0.85,-0.35 1.85,-0.55 2.85,-0.55l40,0c2.1,0 4,0.8 5.45,2.15c-0.3,-1.05 -0.4,-2.15 -0.2,-3.3l6.85,-48c-1.2,0.75 -2.6,1.15 -4.1,1.15z M212.55,288.6l-4.65,32.55c-0.6,4.35 -4.65,7.4 -9,6.75c-4.4,-0.6 -7.45,-4.65 -6.8,-9l2.4,-16.75z M256,272c8.85,0 16,7.15 16,16c0,8.85 -7.15,16 -16,16c-8.85,0 -16,-7.15 -16,-16c0,-8.85 7.15,-16 16,-16z M271.35,244.5c-1.9,6.65 -8.05,11.5 -15.35,11.5z M320,208c0,0.4 -0.05,0.75 -0.1,1.1l-6.75,47.45c0.85,-0.35 1.85,-0.55 2.85,-0.55l40,0c2.1,0 4,0.8 5.45,2.15c-0.3,-1.05 -0.35,-2.15 -0.2,-3.3l6.85,-48c0.6,-4.35 4.65,-7.4 9.05,-6.75c4.35,0.6 7.4,4.65 6.75,9l-6.85,48.05c-0.6,4.35 -4.65,7.4 -9.05,6.75c-1.65,-0.25 -3.15,-1 -4.3,-2.05c0.2,0.7 0.3,1.4 0.3,2.15c0,0.2 0,0.35 0,0.55c1.2,-0.5 2.6,-0.65 4,-0.45c4.35,0.6 7.4,4.65 6.75,9l-6.85,48.05c-0.6,4.35 -4.65,7.4 -9,6.75c-4.4,-0.6 -7.45,-4.65 -6.8,-9l6.75,-47.45c-0.85,0.35 -1.85,0.55 -2.85,0.55l-40,0c-4.4,0 -8,-3.6 -8,-8c0,-0.2 0,-0.35 0,-0.55c-1.2,0.5 -2.6,0.65 -4,0.45c-4.35,-0.6 -7.4,-4.65 -6.75,-9.05l4.75,-33.35z M404.1,201.15c-0.05,-0.4 -0.1,-0.75 -0.1,-1.15c0,-4.4 3.6,-8 8,-8l40,0c4.4,0 8,3.6 8,8c0,0.4 -0.05,0.75 -0.1,1.15c1.55,-0.9 3.35,-1.3 5.2,-1.05c4.4,0.6 7.45,4.65 6.8,9l-6.85,48.05c-0.6,4.35 -4.65,7.4 -9.05,6.75c-1.65,-0.25 -3.15,-1 -4.3,-2.05c0.2,0.7 0.3,1.4 0.3,2.15c0,0.2 0,0.35 0,0.55c1.2,-0.5 2.6,-0.65 4,-0.45c4.35,0.6 7.4,4.65 6.75,9l-6.85,48.05c-0.6,4.35 -4.65,7.4 -9.05,6.75c-1.05,-0.15 -2.05,-0.5 -2.95,-1.05c0.05,0.4 0.1,0.75 0.1,1.15c0,4.4 -3.6,8 -8,8l-40,0c-4.4,0 -8,-3.6 -8,-8c0,-4.4 3.6,-8 8,-8l40,0c1.5,0 2.9,0.4 4.1,1.1c-0.1,-0.7 -0.1,-1.45 0,-2.2l6.75,-47.45c-0.85,0.35 -1.85,0.55 -2.85,0.55l-40,0c-4.4,0 -8,-3.6 -8,-8c0,-0.2 0,-0.35 0,-0.55c-1.2,0.5 -2.6,0.65 -4,0.45c-4.35,-0.6 -7.4,-4.65 -6.75,-9.05l6.85,-48c0.6,-4.35 4.65,-7.4 9,-6.75c1.1,0.15 2.1,0.5 3,1.05z" fill="#ffb100"/>
    </g>
</svg>