<svg x="0" y="0" width="512" height="512" version="1.1"
    xmlns="http://www.w3.org/2000/svg"
    xmlns:xlink="http://www.w3.org/1999/xlink" viewBox="0 0 512 512">
    <title>sticky note text icon</title>
    <desc>sticky note text icon from the IconExperience.com G-Collection. Copyright by INCORS GmbH (www.incors.com).</desc>
    <g>
        <path d="M240,32l-200,0c-4.4,0 -8,3.6 -8,8l0,432c0,4.4 3.6,8 8,8l432,0c4.4,0 8,-3.6 8,-8l0,-296c0,-8.8 -3.6,-16.85 -9.4,-22.65l-214.85,-117.2c-5.05,-2.75 -9.95,-4.15 -15.75,-4.15z" fill="#ffed58"/>
        <path d="M34.35,477.65c1.45,1.45 3.45,2.35 5.65,2.35l432,0c4.4,0 8,-3.6 8,-8l0,-296c0,-8.8 -3.6,-16.85 -9.4,-22.65l-72.45,-39.5z" fill="#fbd734"/>
        <path d="M436.2,368.45c6.2,2.3 9.35,9.2 7,15.4c-2.35,6.2 -9.25,9.3 -15.4,7c-14.4,-5.45 -17.85,-9.6 -24.95,-18.05c-2.7,-3.25 -6.1,-7.3 -11.3,-12.45c-2.6,-2.6 -2.8,-2.45 -3.05,-2.25c-5.7,4.3 -11.85,8.95 -24,5.2c-2.5,-0.8 -4.8,-1.8 -7.25,-2.9c-4.2,-1.9 -9.8,-4.45 -10.95,-2.5c-15.55,26.4 -29.15,30.4 -41.1,23.35c-9.7,-5.7 -14.75,-19.55 -18.55,-32.75c-1.95,8.65 -5.1,16.65 -14.15,21.15c-11.65,5.85 -19.1,-2.05 -26.85,-10.3c-0.8,-0.85 -1.6,-1.7 -2.4,-2.5c-9.65,15.9 -19.15,17.9 -27.95,13.2c-4.65,-2.5 -7.75,-6.95 -10,-11.85c-11.1,10.65 -19.95,10.25 -27.8,4.95c-0.35,-0.2 -0.65,-0.45 -0.95,-0.7c-3.8,-2.8 -6.25,-6.4 -8.55,-10.15c-1.75,6.25 -5.65,14.2 -15.5,24.05c-14.95,14.95 -26.35,14.25 -35.35,5.25c-8.8,-8.8 -10.8,-26.85 -12.45,-41.6c-0.55,0.85 -1.1,1.75 -1.7,2.65c-5.2,8.3 -9.55,18.95 -10.7,28.4c-0.2,1.5 -0.3,2.95 -0.3,4.35c0,6.6 -5.35,12 -12,12c-6.65,0 -12,-5.4 -12,-12c0,-2.35 0.15,-4.75 0.45,-7.25c1.6,-12.85 7.4,-27.15 14.3,-38.15c8.15,-12.95 18.9,-22.2 28.55,-22.2c0.7,0 1.4,0.05 2.15,0.15c12,1.5 13.4,14.1 15.1,29.4c1.2,10.95 2.7,24.4 5.6,27.3c1.15,1.15 -1.1,-2.85 1.35,-5.3c9.25,-9.25 9.7,-14.6 10,-18.1c0.55,-6.4 0.9,-10.8 7.95,-15.45l0,0.05c19.05,-12.5 26.5,-0.1 33.9,12.15c1.35,2.25 2.7,4.5 3.25,5.1l0.2,0.1c0.8,0.55 0.4,-3.5 6.75,-13.3c0.15,-0.25 0.3,-0.45 0.45,-0.7c5.15,-7.7 11.15,-8.45 18,-3.9c4.6,3.05 6.2,8.25 8.1,14.5c0.15,0.5 0.35,1.05 0.45,1.6c7.4,-13.6 16.5,-14.2 26.25,-9c4.85,2.6 8.6,6.6 12.3,10.55c0.1,0.1 0.15,0.25 0.2,0.4c0.35,-1.75 0.75,-3.8 1.1,-5.9c2.5,-13.55 4.95,-26.95 21.85,-29.45c13.45,-2 17.1,11.15 21.45,27.05c2.95,10.75 6.5,23.75 9.6,25.6c0.15,0.1 1.95,-3.9 8.4,-14.85c12.05,-20.5 28.8,-12.95 41.4,-7.25c1.85,0.85 3.55,1.6 4.4,1.85c0.45,0.15 1.55,-0.7 2.55,-1.45c9,-6.8 17.05,-12.85 34.4,4.4c6.15,6.15 9.85,10.55 12.8,14.1c4.4,5.2 6.55,7.8 14.95,11z M436.2,211.95c6.2,2.35 9.35,9.25 7,15.45c-2.35,6.2 -9.25,9.3 -15.4,6.95c-13.85,-5.25 -19.1,-15 -25.2,-26.4c-2.95,-5.55 -6.25,-11.65 -11.2,-17.25c-2.55,3.3 -5.45,8.55 -8.3,13.75c-8.6,15.6 -17,30.85 -33,25.9c-8.1,-2.5 -12.75,-11.45 -17.45,-20.55l-1.1,-2.1c-11.95,16.55 -21.95,19.3 -30.6,14.2c-7.6,-4.5 -10.55,-15.1 -12.1,-26.6c-4.1,14.8 -8.25,29.05 -18.7,34.3c-14.5,7.3 -21.5,-6.45 -28.65,-20.55l-1.8,-3.6c-7.4,9.1 -14.9,10.15 -22.3,6.15c-7.6,-4.05 -11.3,-14.2 -14.05,-24.7l-0.3,1.6c-2.75,14.8 -5.7,30.75 -20.45,40.45c-0.4,0.25 -0.85,0.5 -1.25,0.7c-7.7,4.35 -13.75,1.1 -19,-6.9c-2.5,-3.75 -4.9,-8.85 -7.5,-14.35c-0.9,-1.95 -1.8,-3.95 -2.65,-5.85c-9.3,23 -18.95,29.35 -28.45,26.3c-11.95,-3.9 -16,-23.8 -19.15,-41.8c-0.6,3.35 -1.35,6.95 -2.55,10.45c-4.1,11.85 -7.95,23.05 -12.75,28.95c-4.2,5.15 -11.7,5.9 -16.85,1.75c-5.1,-4.15 -5.9,-11.7 -1.75,-16.8c2.05,-2.5 5.25,-11.85 8.65,-21.7c7.3,-21.15 15.15,-44 31.7,-41.95c11.3,1.4 13.8,15.75 16.65,32.3c2.15,12.15 2.15,25.6 3.35,26c2.55,0.85 -2.45,-6.95 2.7,-22.8c4.35,-13.5 11.8,-16.95 21.05,-13.95c9.45,3.05 15.9,16.6 21.6,28.65c1.35,-4.25 2.25,-9.1 3.1,-13.75c3,-16.25 5.75,-31.2 22.85,-36.1c11.3,-3.25 16.65,4.7 20.15,16.95c0.6,2.15 1.45,5.6 2.3,9.2c0.65,2.5 1.25,5.1 1.75,7.45c5.75,-8.25 12.7,-9 20.4,-4.9c6.95,3.75 11.5,12.7 15.95,21.45c0.05,0.15 0.1,0.35 0.15,0.55c0.95,-3.3 2,-7.15 3.1,-11.05c5.1,-18.5 10.35,-37.55 26.55,-39.95c11,-1.65 15.5,6 17.3,18.2c0.6,4.05 1,8.7 1.4,13.55c0.85,10.2 1.45,21.6 1.65,21.75c2.15,1.25 -1.6,-5.6 4.15,-15.4c6.3,-10.65 13.85,-11.7 22.15,-6.8c6.3,3.75 10.45,11.8 14.6,19.75c2.35,4.55 1.65,8.15 3.2,8.65c2.6,0.8 1.1,-7.65 4.95,-14.6c4.25,-7.7 8.5,-15.45 13.85,-20.8c9.15,-9.25 19.05,-11.75 30.15,-0.7c8.7,8.65 13.4,17.4 17.6,25.3c3.8,7.1 7.05,13.2 12.5,15.25z" fill="#445a64"/>
        <path d="M436.2,368.45c6.2,2.3 9.35,9.2 7,15.4c-2.35,6.2 -9.25,9.3 -15.4,7c-14.4,-5.45 -17.85,-9.6 -24.95,-18.05c-2.7,-3.25 -6.1,-7.3 -11.3,-12.45c-2.6,-2.6 -2.8,-2.45 -3.05,-2.25c-5.7,4.3 -11.85,8.95 -24,5.2c-2.5,-0.8 -4.8,-1.8 -7.25,-2.9c-4.2,-1.9 -9.8,-4.45 -10.95,-2.5c-15.55,26.4 -29.15,30.4 -41.1,23.35c-9.7,-5.7 -14.75,-19.55 -18.55,-32.75c-1.95,8.65 -5.1,16.65 -14.15,21.15c-11.65,5.85 -19.1,-2.05 -26.85,-10.3c-0.8,-0.85 -1.6,-1.7 -2.4,-2.5c-9.65,15.9 -19.15,17.9 -27.95,13.2c-4.65,-2.5 -7.75,-6.95 -10,-11.85c-11.1,10.65 -19.95,10.25 -27.8,4.95c-0.35,-0.2 -0.65,-0.45 -0.95,-0.7c-3.8,-2.8 -6.25,-6.4 -8.55,-10.15c-1.75,6.25 -5.65,14.2 -15.5,24.05c-10.9,10.85 -19.9,13.45 -27.45,10.6l57.1,-57.1c1.8,2.55 3.5,5.35 5.2,8.15c1.35,2.25 2.7,4.5 3.25,5.1l0.2,0.1c0.8,0.55 0.4,-3.5 6.75,-13.3c0.15,-0.25 0.3,-0.45 0.45,-0.7c5.15,-7.7 11.15,-8.45 18,-3.9c4.6,3.05 6.2,8.25 8.1,14.5c0.15,0.5 0.35,1.05 0.45,1.6c7.4,-13.6 16.5,-14.2 26.25,-9c4.85,2.6 8.6,6.6 12.3,10.55c0.1,0.1 0.15,0.25 0.2,0.4c0.35,-1.75 0.75,-3.8 1.1,-5.9c2.5,-13.55 4.95,-26.95 21.85,-29.45c13.45,-2 17.1,11.15 21.45,27.05c2.95,10.75 6.5,23.75 9.6,25.6c0.15,0.1 1.95,-3.9 8.4,-14.85c12.05,-20.5 28.8,-12.95 41.4,-7.25c1.85,0.85 3.55,1.6 4.4,1.85c0.45,0.15 1.55,-0.7 2.55,-1.45c9,-6.8 17.05,-12.85 34.4,4.4c6.15,6.15 9.85,10.55 12.8,14.1c4.4,5.2 6.55,7.8 14.95,11z M334.95,177.05l-21.2,21.2c0,2.45 0.3,3.6 -0.7,3.05c-0.05,-0.05 -0.15,-0.8 -0.25,-2.1l-17.4,17.4c1.5,2.2 3.35,4 5.55,5.3c8.65,5.1 18.65,2.35 30.6,-14.2l1.1,2.1c4.7,9.1 9.35,18.05 17.45,20.55c16,4.95 24.4,-10.3 33,-25.9c2.85,-5.2 5.75,-10.45 8.3,-13.75c4.95,5.6 8.25,11.7 11.2,17.25c6.1,11.4 11.35,21.15 25.2,26.4c6.15,2.35 13.05,-0.75 15.4,-6.95c2.35,-6.2 -0.8,-13.1 -7,-15.45c-5.45,-2.05 -8.7,-8.15 -12.5,-15.25c-4.2,-7.9 -8.9,-16.65 -17.6,-25.3c-11.1,-11.05 -21,-8.55 -30.15,0.7c-5.35,5.35 -9.6,13.1 -13.85,20.8c-3.85,6.95 -2.35,15.4 -4.95,14.6c-1.55,-0.5 -0.85,-4.1 -3.2,-8.65c-4.15,-7.95 -8.3,-16 -14.6,-19.75c-1.5,-0.85 -2.95,-1.55 -4.4,-2.05z" fill="#36464e"/>
        <path d="M240,32c5.75,0 10.7,1.4 15.75,4.15l206.5,112.45c-8.05,-1.4 -16.65,0.25 -23.85,5.3l-59,41.3c-3.6,2.5 -8.55,1.6 -11.15,-2l-107.6,-148.05c-5,-6.9 -12.25,-11.65 -20.65,-13.15z" fill="#f7a724"/>
    </g>
</svg>