<svg x="0" y="0" width="512" height="512" version="1.1"
    xmlns="http://www.w3.org/2000/svg"
    xmlns:xlink="http://www.w3.org/1999/xlink" viewBox="0 0 512 512">
    <title>tables icon</title>
    <desc>tables icon from the IconExperience.com G-Collection. Copyright by INCORS GmbH (www.incors.com).</desc>
    <g>
        <polygon points="512,0 512,448 96,448 96,0" fill="#8fa3ad"/>
        <polygon points="512,0 512,448 96,448" fill="#788f9b"/>
        <path d="M112,48l64,0l0,64l-64,0z M112,368l64,0l0,64l-64,0z M192,368l64,0l0,64l-64,0z M272,368l64,0l0,64l-64,0z M352,368l64,0l0,64l-64,0z M432,368l64,0l0,64l-64,0z M112,288l64,0l0,64l-64,0z M192,288l64,0l0,64l-64,0z M272,288l64,0l0,64l-64,0z M352,288l64,0l0,64l-64,0z M432,288l64,0l0,64l-64,0z M112,208l64,0l0,64l-64,0z M192,208l64,0l0,64l-64,0z M272,208l64,0l0,64l-64,0z M352,208l64,0l0,64l-64,0z M432,208l64,0l0,64l-64,0z M112,128l64,0l0,64l-64,0z M192,128l64,0l0,64l-64,0z M272,128l64,0l0,64l-64,0z M352,128l64,0l0,64l-64,0z M192,48l64,0l0,64l-64,0z M272,48l64,0l0,64l-64,0z M352,48l64,0l0,64l-64,0z M432,48l64,0l0,64l-64,0z M432,128l64,0l0,64l-64,0z" fill="#ffffff"/>
        <path d="M112,430.75l58.3,-62.75l5.7,0l0,64l-64,0z M192,344.6l52.55,-56.6l11.45,0l0,64l-64,0z M272,258.45l46.85,-50.45l17.15,0l0,64l-64,0z M333.7,192l2.3,-2.45l0,2.45z M352,172.3l41.15,-44.3l22.85,0l0,64l-64,0z M408,112l8,-8.6l0,8.6z M432,86.15l35.45,-38.15l28.55,0l0,64l-64,0z M192,368l64,0l0,64l-64,0z M272,368l64,0l0,64l-64,0z M352,368l64,0l0,64l-64,0z M432,368l64,0l0,64l-64,0z M272,288l64,0l0,64l-64,0z M352,288l64,0l0,64l-64,0z M432,288l64,0l0,64l-64,0z M352,208l64,0l0,64l-64,0z M432,208l64,0l0,64l-64,0z M432,128l64,0l0,64l-64,0z" fill="#ebedef"/>
        <polygon points="432,64 432,512 16,512 16,64" fill="#28b5f5"/>
        <polygon points="432,64 432,512 16,512" fill="#0299e3"/>
        <path d="M32,112l64,0l0,64l-64,0z M32,432l64,0l0,64l-64,0z M112,432l64,0l0,64l-64,0z M192,432l64,0l0,64l-64,0z M272,432l64,0l0,64l-64,0z M352,432l64,0l0,64l-64,0z M32,352l64,0l0,64l-64,0z M112,352l64,0l0,64l-64,0z M192,352l64,0l0,64l-64,0z M272,352l64,0l0,64l-64,0z M352,352l64,0l0,64l-64,0z M32,272l64,0l0,64l-64,0z M112,272l64,0l0,64l-64,0z M192,272l64,0l0,64l-64,0z M272,272l64,0l0,64l-64,0z M352,272l64,0l0,64l-64,0z M32,192l64,0l0,64l-64,0z M112,192l64,0l0,64l-64,0z M192,192l64,0l0,64l-64,0z M272,192l64,0l0,64l-64,0z M112,112l64,0l0,64l-64,0z M192,112l64,0l0,64l-64,0z M272,112l64,0l0,64l-64,0z M352,112l64,0l0,64l-64,0z M352,192l64,0l0,64l-64,0z" fill="#ffffff"/>
        <path d="M32,494.75l58.3,-62.75l5.7,0l0,64l-64,0z M112,408.6l52.55,-56.6l11.45,0l0,64l-64,0z M192,322.45l46.85,-50.45l17.15,0l0,64l-64,0z M253.7,256l2.3,-2.45l0,2.45z M272,236.3l41.15,-44.3l22.85,0l0,64l-64,0z M328,176l8,-8.6l0,8.6z M352,150.15l35.45,-38.15l28.55,0l0,64l-64,0z M112,432l64,0l0,64l-64,0z M192,432l64,0l0,64l-64,0z M272,432l64,0l0,64l-64,0z M352,432l64,0l0,64l-64,0z M192,352l64,0l0,64l-64,0z M272,352l64,0l0,64l-64,0z M352,352l64,0l0,64l-64,0z M272,272l64,0l0,64l-64,0z M352,272l64,0l0,64l-64,0z M352,192l64,0l0,64l-64,0z" fill="#dff3fd"/>
    </g>
</svg>