<svg x="0" y="0" width="512" height="512" version="1.1"
    xmlns="http://www.w3.org/2000/svg"
    xmlns:xlink="http://www.w3.org/1999/xlink" viewBox="0 0 512 512">
    <title>typewriter icon</title>
    <desc>typewriter icon from the IconExperience.com G-Collection. Copyright by INCORS GmbH (www.incors.com).</desc>
    <g>
        <path d="M34.5,180.2l29.5,-20.2l0,48l-15.6,10.65c-7.2,4.9 -10.25,15.7 -12.2,22.1l-13.85,45.5c-3.05,10 -5.35,14 -13.8,13.95c-11.65,-0.15 -8.35,-16.05 -6.85,-24.8l9.2,-52.45c3.85,-21.95 8.1,-32.1 23.6,-42.75z" fill="#8fa3ad"/>
        <path d="M94.15,208l323.7,0l28.95,178.1c3.9,24.1 -1.65,46.55 -16.1,65.3c-14.5,18.75 -33.85,28.6 -56.4,28.6l-236.6,0c-22.55,0 -41.9,-9.85 -56.4,-28.6c-14.45,-18.75 -20,-41.2 -16.1,-65.3z" fill="#9bcb64"/>
        <path d="M433.45,304l13.35,82.1c3.9,24.1 -1.65,46.55 -16.1,65.3c-14.5,18.75 -33.85,28.6 -56.4,28.6l-236.6,0c-22.55,0 -41.9,-9.85 -56.4,-28.6c-14.45,-18.75 -20,-41.2 -16.1,-65.3l13.35,-82.1z" fill="#7cb142"/>
        <path d="M337.5,266.65c-22.15,18.3 -50.55,29.3 -81.5,29.3c-30.95,0 -59.35,-11 -81.5,-29.3c-2,-1.7 -3,-4 -2.9,-6.6c0.15,-2.6 1.2,-5.15 3.55,-6.25l39.4,-17.65c5.9,-2.6 9.45,-8.15 9.45,-14.6l0,-5.5l64,0l0,5.5c0,6.45 3.55,12 9.45,14.6l39.4,17.65c2.35,1.1 3.4,3.65 3.55,6.25c0.1,2.6 -0.9,4.9 -2.9,6.6z" fill="#445a64"/>
        <polygon points="64,160 448,160 448,224 64,224" fill="#445a64"/>
        <polygon points="64,192 448,192 448,224 64,224" fill="#36464e"/>
        <polygon points="368,32 368,224 144,224 144,32" fill="#ebedef"/>
        <polygon points="200,224 368,32 368,224" fill="#cdd7db"/>
        <path d="M48,160l16,0l0,64l-16,0z M448,160l16,0l0,64l-16,0z" fill="#ebedef"/>
        <path d="M48,192l16,0l0,32l-16,0z M448,192l16,0l0,32l-16,0z" fill="#cdd7db"/>
        <path d="M304,421.2c8.85,0 16,7.15 16,16c0,8.85 -7.15,16 -16,16l-96,0c-8.85,0 -16,-7.15 -16,-16c0,-8.85 7.15,-16 16,-16z M352,416c8.85,0 16,7.15 16,16c0,8.85 -7.15,16 -16,16c-8.85,0 -16,-7.15 -16,-16c0,-8.85 7.15,-16 16,-16z M184,376c8.85,0 16,7.15 16,16c0,8.85 -7.15,16 -16,16c-8.85,0 -16,-7.15 -16,-16c0,-8.85 7.15,-16 16,-16z M232,376c8.85,0 16,7.15 16,16c0,8.85 -7.15,16 -16,16c-8.85,0 -16,-7.15 -16,-16c0,-8.85 7.15,-16 16,-16z M280,376c8.85,0 16,7.15 16,16c0,8.85 -7.15,16 -16,16c-8.85,0 -16,-7.15 -16,-16c0,-8.85 7.15,-16 16,-16z M328,376c8.85,0 16,7.15 16,16c0,8.85 -7.15,16 -16,16c-8.85,0 -16,-7.15 -16,-16c0,-8.85 7.15,-16 16,-16z M376,376c8.85,0 16,7.15 16,16c0,8.85 -7.15,16 -16,16c-8.85,0 -16,-7.15 -16,-16c0,-8.85 7.15,-16 16,-16z M160,336c8.85,0 16,7.15 16,16c0,8.85 -7.15,16 -16,16c-8.85,0 -16,-7.15 -16,-16c0,-8.85 7.15,-16 16,-16z M208,336c8.85,0 16,7.15 16,16c0,8.85 -7.15,16 -16,16c-8.85,0 -16,-7.15 -16,-16c0,-8.85 7.15,-16 16,-16z M256,336c8.85,0 16,7.15 16,16c0,8.85 -7.15,16 -16,16c-8.85,0 -16,-7.15 -16,-16c0,-8.85 7.15,-16 16,-16z M304,336c8.85,0 16,7.15 16,16c0,8.85 -7.15,16 -16,16c-8.85,0 -16,-7.15 -16,-16c0,-8.85 7.15,-16 16,-16z M352,336c8.85,0 16,7.15 16,16c0,8.85 -7.15,16 -16,16c-8.85,0 -16,-7.15 -16,-16c0,-8.85 7.15,-16 16,-16z M400,336c8.85,0 16,7.15 16,16c0,8.85 -7.15,16 -16,16c-8.85,0 -16,-7.15 -16,-16c0,-8.85 7.15,-16 16,-16z M160,416c8.85,0 16,7.15 16,16c0,8.85 -7.15,16 -16,16c-8.85,0 -16,-7.15 -16,-16c0,-8.85 7.15,-16 16,-16z M136,376c8.85,0 16,7.15 16,16c0,8.85 -7.15,16 -16,16c-8.85,0 -16,-7.15 -16,-16c0,-8.85 7.15,-16 16,-16z M112,336c8.85,0 16,7.15 16,16c0,8.85 -7.15,16 -16,16c-8.85,0 -16,-7.15 -16,-16c0,-8.85 7.15,-16 16,-16z" fill="#ffffff"/>
        <path d="M320,437.2c0,8.85 -7.15,16 -16,16l-96,0c-8.85,0 -16,-7.15 -16,-16z M368,432c0,8.85 -7.15,16 -16,16c-8.85,0 -16,-7.15 -16,-16z M200,392c0,8.85 -7.15,16 -16,16c-8.85,0 -16,-7.15 -16,-16z M248,392c0,8.85 -7.15,16 -16,16c-8.85,0 -16,-7.15 -16,-16z M296,392c0,8.85 -7.15,16 -16,16c-8.85,0 -16,-7.15 -16,-16z M344,392c0,8.85 -7.15,16 -16,16c-8.85,0 -16,-7.15 -16,-16z M392,392c0,8.85 -7.15,16 -16,16c-8.85,0 -16,-7.15 -16,-16z M176,352c0,8.85 -7.15,16 -16,16c-8.85,0 -16,-7.15 -16,-16z M224,352c0,8.85 -7.15,16 -16,16c-8.85,0 -16,-7.15 -16,-16z M272,352c0,8.85 -7.15,16 -16,16c-8.85,0 -16,-7.15 -16,-16z M320,352c0,8.85 -7.15,16 -16,16c-8.85,0 -16,-7.15 -16,-16z M368,352c0,8.85 -7.15,16 -16,16c-8.85,0 -16,-7.15 -16,-16z M416,352c0,8.85 -7.15,16 -16,16c-8.85,0 -16,-7.15 -16,-16z M176,432c0,8.85 -7.15,16 -16,16c-8.85,0 -16,-7.15 -16,-16z M152,392c0,8.85 -7.15,16 -16,16c-8.85,0 -16,-7.15 -16,-16z M128,352c0,8.85 -7.15,16 -16,16c-8.85,0 -16,-7.15 -16,-16z" fill="#ebedef"/>
        <path d="M144,176l224,0c8.8,0 16,7.2 16,16l0,32l-16,0l0,-32l-224,0l0,32l-16,0l0,-32c0,-8.8 7.2,-16 16,-16z" fill="#8fa3ad"/>
    </g>
</svg>